<?xml version="1.0" standalone="no"?>
<!DOCTYPE svg PUBLIC "-//W3C//DTD SVG 20010904//EN"
 "http://www.w3.org/TR/2001/REC-SVG-20010904/DTD/svg10.dtd">
<svg version="1.0" xmlns="http://www.w3.org/2000/svg"
 width="225.000000pt" height="225.000000pt" viewBox="0 0 225.000000 225.000000"
 preserveAspectRatio="xMidYMid meet">
<metadata>
Created by potrace 1.11, written by Peter Selinger 2001-2013
</metadata>
<g transform="translate(0.000000,225.000000) scale(0.100000,-0.100000)"
fill="#000000" stroke="none">
<path d="M985 2129 c-214 -29 -430 -133 -596 -286 -61 -56 -155 -185 -200
-274 -40 -81 -82 -209 -94 -292 l-7 -46 34 32 c45 42 206 156 331 234 113 71
178 96 237 91 l41 -3 -69 -52 c-38 -29 -90 -75 -116 -103 -44 -47 -47 -53 -44
-97 3 -41 8 -50 37 -70 65 -44 147 -24 281 66 90 61 51 -16 -62 -124 -76 -73
-133 -125 -403 -364 -88 -78 -161 -145 -162 -149 -2 -4 7 -24 20 -45 l23 -37
115 107 c288 269 350 326 439 403 113 97 349 277 411 313 45 26 161 61 180 55
6 -2 -33 -39 -88 -82 -54 -43 -104 -90 -112 -104 -21 -40 -19 -116 4 -142 28
-31 76 -50 129 -50 38 0 59 10 153 73 132 88 127 86 119 51 -18 -74 -87 -149
-476 -517 -146 -138 -309 -294 -363 -347 -54 -52 -102 -96 -107 -98 -18 -6
-10 -30 10 -37 21 -7 41 8 145 104 72 68 385 335 490 419 91 74 170 112 227
112 31 0 31 0 -47 -79 -92 -93 -104 -112 -105 -166 0 -51 20 -80 66 -95 65
-22 99 -7 227 103 50 43 57 46 57 27 0 -45 -39 -92 -253 -308 l-222 -224 55 7
c207 27 435 142 588 298 129 130 205 258 258 432 25 82 27 105 28 260 1 148
-2 181 -22 254 -102 372 -407 655 -796 737 -91 19 -270 26 -361 13z"/>
</g>
</svg>
